G04 Layer: TopLayer*
G04 EasyEDA v6.3.22, 2020-01-15T09:47:29+05:30*
G04 df7ee3fc161541079e6ef3371bf9abd3,b6e8962e620740079bb188d2402746ea,10*
G04 Gerber Generator version 0.2*
G04 Scale: 100 percent, Rotated: No, Reflected: No *
G04 Dimensions in millimeters *
G04 leading zeros omitted , absolute positions ,3 integer and 3 decimal *
%FSLAX33Y33*%
%MOMM*%
G90*
G71D02*

%ADD11C,0.499999*%
%ADD12C,0.999998*%
%ADD13C,0.609600*%
%ADD14C,3.810000*%
%ADD15R,1.999996X1.999996*%
%ADD16C,1.949958*%
%ADD18R,1.599997X1.599997*%
%ADD19C,1.599997*%
%ADD20R,1.879600X1.879600*%
%ADD21C,1.879600*%
%ADD22C,2.499995*%
%ADD23C,2.032000*%
%ADD25R,2.032000X3.657600*%
%ADD28C,1.999996*%

%LPD*%
G54D11*
G01X1905Y14478D02*
G01X4318Y14478D01*
G01X8255Y18415D01*
G01X8255Y49403D01*
G01X9271Y50419D01*
G01X29464Y50419D01*
G01X31115Y48768D01*
G01X31115Y40767D01*
G01X32131Y39751D01*
G01X34163Y39751D01*
G01X9398Y2667D02*
G01X9398Y47625D01*
G01X27305Y34798D02*
G01X23241Y34798D01*
G01X21590Y33147D01*
G01X21590Y6350D01*
G01X21971Y5969D01*
G01X21971Y2667D01*
G01X27305Y42418D02*
G01X24384Y42418D01*
G01X18796Y36830D01*
G01X18796Y8763D01*
G01X14351Y4318D01*
G01X14351Y2667D01*
G01X27305Y32258D02*
G01X22606Y32258D01*
G01X22479Y32131D01*
G01X22479Y7874D01*
G01X23495Y6858D01*
G01X23622Y6858D01*
G01X24511Y5969D01*
G01X24511Y2667D01*
G01X1905Y44958D02*
G01X3556Y44958D01*
G01X4318Y45720D01*
G01X4318Y49022D01*
G01X6604Y51308D01*
G01X30480Y51308D01*
G01X32385Y49403D01*
G01X32385Y43053D01*
G01X33020Y42418D01*
G01X34036Y42418D01*
G01X34163Y42291D01*
G54D12*
G01X34229Y13835D02*
G01X34229Y10982D01*
G01X35052Y10160D01*
G01X35052Y7956D01*
G01X34893Y7797D01*
G01X46228Y13962D02*
G01X46196Y10083D01*
G01X45053Y8940D01*
G54D11*
G01X1905Y47498D02*
G01X1905Y49657D01*
G01X4445Y52197D01*
G01X31115Y52197D01*
G01X34163Y49149D01*
G01X34163Y44831D01*
G54D12*
G01X40228Y11963D02*
G01X40196Y3110D01*
G01X40513Y2794D01*
G54D11*
G01X27305Y27178D02*
G01X25273Y27178D01*
G01X24130Y26035D01*
G01X24130Y9906D01*
G01X25400Y8636D01*
G01X28702Y8636D01*
G01X29464Y7874D01*
G01X29464Y2794D01*
G01X29591Y2667D01*
G01X27305Y39878D02*
G01X23114Y39878D01*
G01X19812Y36576D01*
G01X19812Y8255D01*
G01X16891Y5334D01*
G01X16891Y2667D01*
G01X27305Y37338D02*
G01X22225Y37338D01*
G01X20701Y35814D01*
G01X20701Y3937D01*
G01X19431Y2667D01*
G54D12*
G01X36449Y52578D02*
G01X36449Y47752D01*
G01X37973Y46228D01*
G01X40513Y46228D01*
G01X41656Y45085D01*
G01X41656Y39370D01*
G54D11*
G01X20091Y41529D02*
G01X20091Y46075D01*
G01X20066Y46101D01*
G01X27305Y29718D02*
G01X23749Y29718D01*
G01X23368Y29337D01*
G01X23368Y8763D01*
G01X24511Y7620D01*
G01X26162Y7620D01*
G01X27051Y6731D01*
G01X27051Y2667D01*
G54D12*
G01X41656Y39370D02*
G01X39116Y39370D01*
G01X37592Y37846D01*
G01X37592Y27686D01*
G01X39116Y26162D01*
G01X46228Y26162D01*
G54D11*
G01X46736Y39370D02*
G01X48641Y39370D01*
G01X49530Y38481D01*
G01X49530Y14859D01*
G01X48514Y13843D01*
G01X46347Y13843D01*
G01X46228Y13962D01*
G01X1778Y2667D02*
G01X1778Y1524D01*
G01X2540Y762D01*
G01X10922Y762D01*
G01X11938Y1778D01*
G01X12065Y40005D01*
G01X13589Y41529D01*
G01X1905Y22098D02*
G01X5842Y22098D01*
G01X6985Y23241D01*
G01X6985Y49403D01*
G01X22352Y49276D02*
G01X28956Y49276D01*
G01X29845Y48387D01*
G01X29845Y37719D01*
G01X30480Y37084D01*
G01X34036Y37084D01*
G01X34163Y37211D01*
G01X27305Y24638D02*
G01X25781Y24638D01*
G01X25019Y23876D01*
G01X25019Y10922D01*
G01X26162Y9779D01*
G01X30353Y9779D01*
G01X32004Y8128D01*
G01X32004Y2794D01*
G01X32131Y2667D01*
G01X2667Y9017D02*
G01X8128Y9017D01*
G54D14*
G01X40513Y2794D03*
G01X45847Y2794D03*
G54D15*
G01X40767Y31750D03*
G54D16*
G01X1905Y12192D03*
G01X1905Y14478D03*
G01X1905Y17018D03*
G01X1905Y19558D03*
G01X1905Y22098D03*
G01X1905Y24638D03*
G01X1905Y27178D03*
G01X1905Y29718D03*
G01X1905Y32258D03*
G01X1905Y34798D03*
G01X1905Y37338D03*
G01X1905Y39878D03*
G01X1905Y42418D03*
G01X1905Y44958D03*
G01X1905Y47498D03*
G01X27305Y14478D03*
G01X27305Y17018D03*
G01X27305Y19558D03*
G01X27305Y22098D03*
G01X27305Y24638D03*
G01X27305Y27178D03*
G01X27305Y29718D03*
G01X27305Y32258D03*
G01X27305Y34798D03*
G01X27305Y37338D03*
G01X27305Y39878D03*
G01X27305Y42418D03*
G01X27305Y44958D03*
G36*
G01X28204Y48473D02*
G01X28204Y46522D01*
G01X26405Y46522D01*
G01X26405Y48473D01*
G01X28204Y48473D01*
G37*
G01X27305Y11938D03*
G54D18*
G01X9398Y2667D03*
G54D19*
G01X6858Y2667D03*
G01X4318Y2667D03*
G01X1778Y2667D03*
G54D20*
G01X14351Y2667D03*
G54D21*
G01X16891Y2667D03*
G01X19431Y2667D03*
G01X21971Y2667D03*
G01X24511Y2667D03*
G01X27051Y2667D03*
G01X29591Y2667D03*
G01X32131Y2667D03*
G01X13589Y41529D03*
G01X20091Y41529D03*
G54D22*
G01X46228Y26162D03*
G01X40228Y11963D03*
G01X34229Y26162D03*
G01X34229Y13962D03*
G01X46228Y13962D03*
G54D23*
G01X34893Y7924D03*
G01X45053Y7924D03*
G54D15*
G01X32266Y31750D03*
G01X40767Y31750D03*
G54D18*
G01X34163Y44831D03*
G54D19*
G01X34163Y42291D03*
G01X34163Y39751D03*
G01X34163Y37211D03*
G36*
G01X43561Y50579D02*
G01X41529Y50579D01*
G01X41529Y54576D01*
G01X43561Y54576D01*
G01X43561Y50579D01*
G37*
G54D25*
G01X36449Y52578D03*
G36*
G01X41325Y56134D02*
G01X37668Y56134D01*
G01X37668Y58166D01*
G01X41325Y58166D01*
G01X41325Y56134D01*
G37*
G36*
G01X40655Y40619D02*
G01X42656Y40619D01*
G01X42656Y38120D01*
G01X40655Y38120D01*
G01X40655Y40619D01*
G37*
G54D13*
G01X6985Y49403D03*
G01X22352Y49276D03*
G01X20066Y46101D03*
G01X2667Y9017D03*
G01X8128Y9017D03*
G01X9398Y47625D03*
G54D12*
G01X43569Y31631D02*
G01X43569Y32630D01*
G01X45571Y31631D02*
G01X45571Y32630D01*
G01X47570Y31631D02*
G01X47570Y32630D01*
G54D28*
G01X44196Y39619D02*
G01X44196Y39119D01*
G01X46736Y39619D02*
G01X46736Y39119D01*
M00*
M02*
