;Layer: Drill PTH
;EasyEDA v6.3.22, 2020-01-15T09:47:29+05:30
;df7ee3fc161541079e6ef3371bf9abd3,b6e8962e620740079bb188d2402746ea,10
;Gerber Generator version 0.2
M48
METRIC,LZ,000.000
;Holesize 1 = 0.305 METRIC
T01C0.305
;Holesize 2 = 0.600 METRIC
T02C0.600
;Holesize 3 = 0.701 METRIC
T03C0.701
;Holesize 4 = 0.751 METRIC
T04C0.751
;Holesize 5 = 0.900 METRIC
T05C0.900
;Holesize 6 = 0.966 METRIC
T06C0.966
;Holesize 7 = 1.000 METRIC
T07C1.000
;Holesize 8 = 1.016 METRIC
T08C1.016
;Holesize 9 = 1.021 METRIC
T09C1.021
;Holesize 10 = 1.270 METRIC
T10C1.270
;Holesize 11 = 1.400 METRIC
T11C1.400
%
G05
G90
T01
X+006985Y+049403
X+022352Y+049276
X+020066Y+046101
X+002667Y+009017
X+008128Y+009017
X+009398Y+047625
T02
X+040766Y+031749
X+032266Y+031749
X+040766Y+031749
T03
X+043569Y+032130
X+045571Y+032130
X+047570Y+032130
T04
X+001905Y+012192
X+001905Y+014478
X+001905Y+017018
X+001905Y+019558
X+001905Y+022098
X+001905Y+024638
X+001905Y+027178
X+001905Y+029718
X+001905Y+032258
X+001905Y+034798
X+001905Y+037338
X+001905Y+039878
X+001905Y+042418
X+001905Y+044958
X+001905Y+047498
X+027305Y+014478
X+027305Y+017018
X+027305Y+019558
X+027305Y+022098
X+027305Y+024638
X+027305Y+027178
X+027305Y+029718
X+027305Y+032258
X+027305Y+034798
X+027305Y+037338
X+027305Y+039878
X+027305Y+042418
X+027305Y+044958
X+027305Y+047498
X+027305Y+011938
T05
X+013589Y+041529
X+020091Y+041529
T06
X+046228Y+026162
X+040228Y+011963
X+034229Y+026162
X+034229Y+013962
X+046228Y+013962
T07
X+042545Y+053578G85X+042545Y+051577
X+036449Y+053578G85X+036449Y+051577
X+040497Y+057150G85X+038496Y+057150
T08
X+014351Y+002667
X+016891Y+002667
X+019431Y+002667
X+021971Y+002667
X+024511Y+002667
X+027051Y+002667
X+029591Y+002667
X+032131Y+002667
X+034893Y+007924
X+045053Y+007924
T09
X+009398Y+002667
X+006858Y+002667
X+004318Y+002667
X+001778Y+002667
X+034163Y+044831
X+034163Y+042291
X+034163Y+039751
X+034163Y+037211
T10
X+040513Y+002793
X+045847Y+002793
T11
X+044196Y+039370
X+046736Y+039370
X+041656Y+039370
M30
