G04 Layer: TopSilkLayer*
G04 EasyEDA v6.3.22, 2020-01-15T09:47:29+05:30*
G04 df7ee3fc161541079e6ef3371bf9abd3,b6e8962e620740079bb188d2402746ea,10*
G04 Gerber Generator version 0.2*
G04 Scale: 100 percent, Rotated: No, Reflected: No *
G04 Dimensions in millimeters *
G04 leading zeros omitted , absolute positions ,3 integer and 3 decimal *
%FSLAX33Y33*%
%MOMM*%
G90*
G71D02*

%ADD10C,0.254000*%
%ADD29C,0.508000*%
%ADD30C,0.203200*%
%ADD31C,0.200000*%
%ADD32C,0.228600*%
%ADD33C,0.399999*%
%ADD34C,0.152400*%
%ADD35C,0.177800*%

%LPD*%

%LPD*%
G36*
G01X14541Y21607D02*
G01X14473Y21613D01*
G01X14407Y21608D01*
G01X14351Y21590D01*
G01X14326Y21581D01*
G01X14301Y21566D01*
G01X14277Y21547D01*
G01X14254Y21526D01*
G01X14203Y21480D01*
G01X14698Y20988D01*
G01X15201Y20495D01*
G01X14478Y19781D01*
G01X13749Y19065D01*
G01X14605Y18221D01*
G01X15455Y17378D01*
G01X15615Y17536D01*
G01X15773Y17691D01*
G01X15085Y18384D01*
G01X14381Y19077D01*
G01X14823Y19509D01*
G01X14913Y19601D01*
G01X14991Y19679D01*
G01X15055Y19746D01*
G01X15108Y19802D01*
G01X15151Y19848D01*
G01X15184Y19887D01*
G01X15210Y19918D01*
G01X15228Y19944D01*
G01X15240Y19965D01*
G01X15248Y19983D01*
G01X15251Y19999D01*
G01X15252Y20015D01*
G01X15257Y20068D01*
G01X15273Y20116D01*
G01X15297Y20159D01*
G01X15330Y20196D01*
G01X15371Y20226D01*
G01X15418Y20247D01*
G01X15471Y20262D01*
G01X15529Y20266D01*
G01X15573Y20263D01*
G01X15610Y20252D01*
G01X15645Y20230D01*
G01X15687Y20193D01*
G01X15716Y20156D01*
G01X15737Y20122D01*
G01X15749Y20084D01*
G01X15753Y20035D01*
G01X15748Y19978D01*
G01X15735Y19927D01*
G01X15714Y19882D01*
G01X15685Y19844D01*
G01X15649Y19814D01*
G01X15606Y19792D01*
G01X15556Y19778D01*
G01X15501Y19773D01*
G01X15478Y19771D01*
G01X15454Y19762D01*
G01X15424Y19744D01*
G01X15386Y19714D01*
G01X15337Y19671D01*
G01X15272Y19609D01*
G01X15189Y19529D01*
G01X15085Y19425D01*
G01X14732Y19077D01*
G01X15341Y18473D01*
G01X15943Y17868D01*
G01X16090Y18013D01*
G01X16230Y18155D01*
G01X15986Y18399D01*
G01X15914Y18473D01*
G01X15856Y18530D01*
G01X15809Y18574D01*
G01X15771Y18606D01*
G01X15741Y18627D01*
G01X15715Y18640D01*
G01X15692Y18647D01*
G01X15669Y18648D01*
G01X15617Y18653D01*
G01X15571Y18668D01*
G01X15530Y18691D01*
G01X15495Y18720D01*
G01X15466Y18756D01*
G01X15445Y18796D01*
G01X15431Y18840D01*
G01X15425Y18885D01*
G01X15429Y18931D01*
G01X15442Y18977D01*
G01X15465Y19021D01*
G01X15499Y19062D01*
G01X15540Y19096D01*
G01X15584Y19120D01*
G01X15630Y19133D01*
G01X15676Y19137D01*
G01X15722Y19132D01*
G01X15766Y19119D01*
G01X15806Y19097D01*
G01X15842Y19069D01*
G01X15872Y19033D01*
G01X15895Y18991D01*
G01X15910Y18943D01*
G01X15915Y18889D01*
G01X15917Y18867D01*
G01X15923Y18844D01*
G01X15936Y18819D01*
G01X15958Y18789D01*
G01X15989Y18752D01*
G01X16033Y18705D01*
G01X16090Y18646D01*
G01X16164Y18572D01*
G01X16408Y18331D01*
G01X16558Y18478D01*
G01X16713Y18635D01*
G01X16474Y18874D01*
G01X16401Y18949D01*
G01X16343Y19006D01*
G01X16298Y19048D01*
G01X16262Y19078D01*
G01X16232Y19099D01*
G01X16206Y19111D01*
G01X16181Y19119D01*
G01X16154Y19123D01*
G01X16087Y19138D01*
G01X16029Y19165D01*
G01X15982Y19203D01*
G01X15946Y19250D01*
G01X15923Y19303D01*
G01X15915Y19361D01*
G01X15922Y19421D01*
G01X15946Y19481D01*
G01X15981Y19539D01*
G01X16027Y19578D01*
G01X16088Y19599D01*
G01X16167Y19606D01*
G01X16224Y19604D01*
G01X16266Y19596D01*
G01X16303Y19576D01*
G01X16344Y19540D01*
G01X16375Y19500D01*
G01X16394Y19466D01*
G01X16405Y19429D01*
G01X16408Y19382D01*
G01X16409Y19351D01*
G01X16413Y19324D01*
G01X16423Y19298D01*
G01X16442Y19269D01*
G01X16471Y19234D01*
G01X16514Y19188D01*
G01X16572Y19128D01*
G01X16649Y19050D01*
G01X16893Y18808D01*
G01X16939Y18872D01*
G01X16979Y18930D01*
G01X17006Y18998D01*
G01X17018Y19073D01*
G01X17012Y19151D01*
G01X17010Y19159D01*
G01X17007Y19168D01*
G01X17002Y19178D01*
G01X16996Y19189D01*
G01X16989Y19201D01*
G01X16978Y19215D01*
G01X16967Y19231D01*
G01X16952Y19249D01*
G01X16935Y19269D01*
G01X16915Y19292D01*
G01X16893Y19318D01*
G01X16866Y19347D01*
G01X16837Y19379D01*
G01X16804Y19414D01*
G01X16767Y19453D01*
G01X16725Y19497D01*
G01X16680Y19543D01*
G01X16630Y19595D01*
G01X16575Y19651D01*
G01X16516Y19711D01*
G01X16451Y19777D01*
G01X16381Y19848D01*
G01X16305Y19925D01*
G01X16224Y20007D01*
G01X16043Y20188D01*
G01X15943Y20289D01*
G01X15836Y20396D01*
G01X15766Y20467D01*
G01X15696Y20536D01*
G01X15628Y20604D01*
G01X15560Y20671D01*
G01X15495Y20737D01*
G01X15430Y20800D01*
G01X15368Y20862D01*
G01X15307Y20921D01*
G01X15247Y20979D01*
G01X15190Y21035D01*
G01X15135Y21089D01*
G01X15082Y21140D01*
G01X15031Y21190D01*
G01X14982Y21236D01*
G01X14936Y21281D01*
G01X14893Y21322D01*
G01X14852Y21361D01*
G01X14813Y21398D01*
G01X14778Y21432D01*
G01X14746Y21462D01*
G01X14716Y21489D01*
G01X14690Y21514D01*
G01X14667Y21535D01*
G01X14647Y21553D01*
G01X14631Y21567D01*
G01X14619Y21578D01*
G01X14610Y21586D01*
G01X14605Y21590D01*
G01X14541Y21607D01*
G37*

%LPD*%
G36*
G01X14444Y20906D02*
G01X14033Y21305D01*
G01X13873Y21158D01*
G01X13718Y21003D01*
G01X13970Y20749D01*
G01X14224Y20497D01*
G01X13497Y19778D01*
G01X12781Y19052D01*
G01X13873Y17970D01*
G01X14958Y16885D01*
G01X15118Y17045D01*
G01X15278Y17203D01*
G01X14348Y18130D01*
G01X13401Y19065D01*
G01X14127Y19781D01*
G01X14843Y20497D01*
G01X14444Y20906D01*
G37*

%LPD*%
G36*
G01X13568Y20801D02*
G01X13555Y20812D01*
G01X13549Y20808D01*
G01X13535Y20797D01*
G01X13513Y20777D01*
G01X13484Y20751D01*
G01X13449Y20717D01*
G01X13408Y20678D01*
G01X13360Y20632D01*
G01X13308Y20582D01*
G01X13251Y20526D01*
G01X13189Y20465D01*
G01X13123Y20399D01*
G01X13053Y20330D01*
G01X12980Y20257D01*
G01X12905Y20181D01*
G01X12828Y20102D01*
G01X12748Y20020D01*
G01X12551Y19823D01*
G01X12466Y19737D01*
G01X12388Y19659D01*
G01X12318Y19588D01*
G01X12256Y19524D01*
G01X12200Y19467D01*
G01X12150Y19415D01*
G01X12107Y19369D01*
G01X12069Y19328D01*
G01X12037Y19291D01*
G01X12009Y19258D01*
G01X11987Y19229D01*
G01X11968Y19202D01*
G01X11954Y19179D01*
G01X11943Y19157D01*
G01X11935Y19137D01*
G01X11930Y19118D01*
G01X11927Y19100D01*
G01X11927Y19082D01*
G01X11928Y19063D01*
G01X11930Y19044D01*
G01X11933Y19024D01*
G01X11938Y19001D01*
G01X11940Y18994D01*
G01X11943Y18985D01*
G01X11947Y18975D01*
G01X11953Y18964D01*
G01X11961Y18952D01*
G01X11972Y18938D01*
G01X11984Y18921D01*
G01X11998Y18903D01*
G01X12016Y18882D01*
G01X12037Y18859D01*
G01X12060Y18833D01*
G01X12087Y18804D01*
G01X12118Y18771D01*
G01X12152Y18735D01*
G01X12190Y18695D01*
G01X12232Y18652D01*
G01X12279Y18604D01*
G01X12330Y18552D01*
G01X12386Y18495D01*
G01X12514Y18367D01*
G01X12585Y18295D01*
G01X12663Y18218D01*
G01X12835Y18046D01*
G01X12931Y17951D01*
G01X13033Y17850D01*
G01X13141Y17741D01*
G01X13445Y17437D01*
G01X13533Y17348D01*
G01X13891Y16990D01*
G01X13947Y16935D01*
G01X13999Y16883D01*
G01X14046Y16837D01*
G01X14089Y16795D01*
G01X14129Y16757D01*
G01X14164Y16723D01*
G01X14196Y16693D01*
G01X14225Y16666D01*
G01X14251Y16643D01*
G01X14274Y16622D01*
G01X14295Y16604D01*
G01X14313Y16590D01*
G01X14329Y16578D01*
G01X14343Y16567D01*
G01X14356Y16559D01*
G01X14367Y16553D01*
G01X14376Y16548D01*
G01X14386Y16545D01*
G01X14394Y16543D01*
G01X14476Y16538D01*
G01X14554Y16551D01*
G01X14627Y16583D01*
G01X14698Y16634D01*
G01X14790Y16703D01*
G01X13606Y17881D01*
G01X12443Y19052D01*
G01X13152Y19778D01*
G01X13873Y20497D01*
G01X13716Y20655D01*
G01X13652Y20718D01*
G01X13601Y20768D01*
G01X13568Y20801D01*
G37*

%LPD*%
G54D29*
G01X37973Y507D02*
G01X49149Y507D01*
G01X49149Y5333D01*
G01X37973Y5333D01*
G01X37973Y507D01*
G54D30*
G01X6985Y6858D02*
G01X21717Y6858D01*
G54D31*
G01X635Y57658D02*
G01X635Y6858D01*
G54D30*
G01X635Y6858D02*
G01X28575Y6858D01*
G01X635Y57658D02*
G01X10795Y57658D01*
G01X10795Y58166D01*
G01X18415Y58166D01*
G01X18415Y57658D01*
G01X28575Y57658D01*
G01X28575Y57658D02*
G01X28575Y6858D01*
G54D10*
G01X10668Y3937D02*
G01X508Y3937D01*
G01X508Y3937D02*
G01X508Y1397D01*
G01X508Y1397D02*
G01X10668Y1397D01*
G01X10668Y1397D02*
G01X10668Y3937D01*
G01X28956Y3937D02*
G01X30226Y3937D01*
G01X30226Y3937D02*
G01X30861Y3302D01*
G01X30861Y2032D02*
G01X30226Y1397D01*
G01X25781Y3302D02*
G01X26416Y3937D01*
G01X26416Y3937D02*
G01X27686Y3937D01*
G01X27686Y3937D02*
G01X28321Y3302D01*
G01X28321Y2032D02*
G01X27686Y1397D01*
G01X27686Y1397D02*
G01X26416Y1397D01*
G01X26416Y1397D02*
G01X25781Y2032D01*
G01X28956Y3937D02*
G01X28321Y3302D01*
G01X28321Y2032D02*
G01X28956Y1397D01*
G01X30226Y1397D02*
G01X28956Y1397D01*
G01X21336Y3937D02*
G01X22606Y3937D01*
G01X22606Y3937D02*
G01X23241Y3302D01*
G01X23241Y2032D02*
G01X22606Y1397D01*
G01X23241Y3302D02*
G01X23876Y3937D01*
G01X23876Y3937D02*
G01X25146Y3937D01*
G01X25146Y3937D02*
G01X25781Y3302D01*
G01X25781Y2032D02*
G01X25146Y1397D01*
G01X25146Y1397D02*
G01X23876Y1397D01*
G01X23876Y1397D02*
G01X23241Y2032D01*
G01X18161Y3302D02*
G01X18796Y3937D01*
G01X18796Y3937D02*
G01X20066Y3937D01*
G01X20066Y3937D02*
G01X20701Y3302D01*
G01X20701Y2032D02*
G01X20066Y1397D01*
G01X20066Y1397D02*
G01X18796Y1397D01*
G01X18796Y1397D02*
G01X18161Y2032D01*
G01X21336Y3937D02*
G01X20701Y3302D01*
G01X20701Y2032D02*
G01X21336Y1397D01*
G01X22606Y1397D02*
G01X21336Y1397D01*
G01X13716Y3937D02*
G01X14986Y3937D01*
G01X14986Y3937D02*
G01X15621Y3302D01*
G01X15621Y2032D02*
G01X14986Y1397D01*
G01X15621Y3302D02*
G01X16256Y3937D01*
G01X16256Y3937D02*
G01X17526Y3937D01*
G01X17526Y3937D02*
G01X18161Y3302D01*
G01X18161Y2032D02*
G01X17526Y1397D01*
G01X17526Y1397D02*
G01X16256Y1397D01*
G01X16256Y1397D02*
G01X15621Y2032D01*
G01X13081Y3302D02*
G01X13081Y2032D01*
G01X13716Y3937D02*
G01X13081Y3302D01*
G01X13081Y2032D02*
G01X13716Y1397D01*
G01X14986Y1397D02*
G01X13716Y1397D01*
G01X31496Y3937D02*
G01X32766Y3937D01*
G01X32766Y3937D02*
G01X33401Y3302D01*
G01X33401Y3302D02*
G01X33401Y2032D01*
G01X33401Y2032D02*
G01X32766Y1397D01*
G01X31496Y3937D02*
G01X30861Y3302D01*
G01X30861Y2032D02*
G01X31496Y1397D01*
G01X32766Y1397D02*
G01X31496Y1397D01*
G01X42357Y10152D02*
G01X32705Y10152D01*
G01X32197Y10660D01*
G01X32197Y29202D01*
G01X32705Y29710D01*
G01X47691Y29710D01*
G01X48199Y29202D01*
G01X48199Y10660D01*
G01X47691Y10152D01*
G01X40833Y10152D01*
G01X36721Y9448D02*
G01X38830Y9448D01*
G01X43021Y9448D01*
G01X43021Y6400D02*
G01X36721Y6400D01*
G01X36671Y9448D02*
G01X36671Y6400D01*
G01X43021Y9448D02*
G01X43021Y6400D01*
G01X42259Y9448D02*
G01X42259Y6400D01*
G54D32*
G01X34044Y32715D02*
G01X39124Y32715D01*
G01X39124Y30784D01*
G01X34044Y30784D01*
G01X34044Y32715D01*
G54D10*
G01X39124Y31749D02*
G01X39886Y31749D01*
G01X33282Y31749D02*
G01X34044Y31749D01*
G01X48570Y30631D02*
G01X42571Y30631D01*
G01X32893Y46101D02*
G01X32893Y35941D01*
G01X32893Y35941D02*
G01X35433Y35941D01*
G01X35433Y35941D02*
G01X35433Y46101D01*
G01X35433Y46101D02*
G01X32893Y46101D01*
G01X50165Y48260D02*
G01X36449Y48260D01*
G01X36449Y48260D02*
G01X36449Y57150D01*
G01X36449Y57150D02*
G01X50165Y57150D01*
G01X50165Y57150D02*
G01X50165Y48260D01*
G01X49495Y41669D02*
G01X38896Y41669D01*
G01X38895Y42169D02*
G01X49496Y42169D01*
G01X49496Y37371D01*
G01X38895Y37371D01*
G01X38895Y42164D01*
G01X38895Y42169D01*
G54D34*
G01X1142Y59242D02*
G01X1142Y58514D01*
G01X1142Y59242D02*
G01X1592Y59242D01*
G01X1142Y58895D02*
G01X1419Y58895D01*
G01X1142Y58514D02*
G01X1592Y58514D01*
G01X2306Y59138D02*
G01X2237Y59207D01*
G01X2133Y59242D01*
G01X1993Y59242D01*
G01X1892Y59207D01*
G01X1821Y59138D01*
G01X1821Y59067D01*
G01X1856Y58999D01*
G01X1892Y58966D01*
G01X1960Y58930D01*
G01X2169Y58861D01*
G01X2237Y58826D01*
G01X2273Y58790D01*
G01X2306Y58722D01*
G01X2306Y58618D01*
G01X2237Y58549D01*
G01X2133Y58514D01*
G01X1993Y58514D01*
G01X1892Y58549D01*
G01X1821Y58618D01*
G01X2534Y59242D02*
G01X2534Y58514D01*
G01X2534Y59242D02*
G01X2847Y59242D01*
G01X2951Y59207D01*
G01X2984Y59171D01*
G01X3020Y59103D01*
G01X3020Y58999D01*
G01X2984Y58930D01*
G01X2951Y58895D01*
G01X2847Y58861D01*
G01X2534Y58861D01*
G01X3317Y59242D02*
G01X3698Y59242D01*
G01X3492Y58966D01*
G01X3594Y58966D01*
G01X3665Y58930D01*
G01X3698Y58895D01*
G01X3733Y58790D01*
G01X3733Y58722D01*
G01X3698Y58618D01*
G01X3629Y58549D01*
G01X3525Y58514D01*
G01X3421Y58514D01*
G01X3317Y58549D01*
G01X3284Y58585D01*
G01X3248Y58653D01*
G01X3997Y59067D02*
G01X3997Y59103D01*
G01X4030Y59171D01*
G01X4066Y59207D01*
G01X4135Y59242D01*
G01X4274Y59242D01*
G01X4343Y59207D01*
G01X4378Y59171D01*
G01X4411Y59103D01*
G01X4411Y59034D01*
G01X4378Y58966D01*
G01X4307Y58861D01*
G01X3962Y58514D01*
G01X4447Y58514D01*
G54D30*
G01X24511Y47914D02*
G01X24787Y47185D01*
G01X25064Y47914D02*
G01X24787Y47185D01*
G01X25293Y47914D02*
G01X25293Y47185D01*
G01X25521Y47914D02*
G01X25521Y47185D01*
G01X25521Y47914D02*
G01X26007Y47185D01*
G01X26007Y47914D02*
G01X26007Y47185D01*
G01X13335Y57188D02*
G01X13335Y56504D01*
G01X13380Y56370D01*
G01X13472Y56278D01*
G01X13606Y56233D01*
G01X13698Y56233D01*
G01X13835Y56278D01*
G01X13926Y56370D01*
G01X13972Y56504D01*
G01X13972Y57188D01*
G01X14907Y57053D02*
G01X14815Y57142D01*
G01X14681Y57188D01*
G01X14498Y57188D01*
G01X14361Y57142D01*
G01X14272Y57053D01*
G01X14272Y56959D01*
G01X14317Y56868D01*
G01X14361Y56824D01*
G01X14452Y56776D01*
G01X14726Y56687D01*
G01X14815Y56642D01*
G01X14861Y56596D01*
G01X14907Y56504D01*
G01X14907Y56370D01*
G01X14815Y56278D01*
G01X14681Y56233D01*
G01X14498Y56233D01*
G01X14361Y56278D01*
G01X14272Y56370D01*
G01X15206Y57188D02*
G01X15206Y56233D01*
G01X15206Y57188D02*
G01X15615Y57188D01*
G01X15753Y57142D01*
G01X15798Y57094D01*
G01X15844Y57005D01*
G01X15844Y56913D01*
G01X15798Y56824D01*
G01X15753Y56776D01*
G01X15615Y56735D01*
G01X15206Y56735D02*
G01X15615Y56735D01*
G01X15753Y56687D01*
G01X15798Y56642D01*
G01X15844Y56550D01*
G01X15844Y56418D01*
G01X15798Y56324D01*
G01X15753Y56278D01*
G01X15615Y56233D01*
G01X15206Y56233D01*
G01X11811Y55090D02*
G01X11811Y54455D01*
G01X11811Y54907D02*
G01X11948Y55046D01*
G01X12037Y55090D01*
G01X12174Y55090D01*
G01X12265Y55046D01*
G01X12311Y54907D01*
G01X12311Y54455D01*
G01X12311Y54907D02*
G01X12448Y55046D01*
G01X12537Y55090D01*
G01X12674Y55090D01*
G01X12766Y55046D01*
G01X12811Y54907D01*
G01X12811Y54455D01*
G01X13111Y55410D02*
G01X13157Y55364D01*
G01X13202Y55410D01*
G01X13157Y55453D01*
G01X13111Y55410D01*
G01X13157Y55090D02*
G01X13157Y54455D01*
G01X14046Y54955D02*
G01X13957Y55046D01*
G01X13865Y55090D01*
G01X13728Y55090D01*
G01X13637Y55046D01*
G01X13548Y54955D01*
G01X13502Y54818D01*
G01X13502Y54724D01*
G01X13548Y54589D01*
G01X13637Y54500D01*
G01X13728Y54455D01*
G01X13865Y54455D01*
G01X13957Y54500D01*
G01X14046Y54589D01*
G01X14348Y55090D02*
G01X14348Y54455D01*
G01X14348Y54818D02*
G01X14391Y54955D01*
G01X14483Y55046D01*
G01X14574Y55090D01*
G01X14711Y55090D01*
G01X15237Y55090D02*
G01X15148Y55046D01*
G01X15057Y54955D01*
G01X15011Y54818D01*
G01X15011Y54724D01*
G01X15057Y54589D01*
G01X15148Y54500D01*
G01X15237Y54455D01*
G01X15374Y54455D01*
G01X15466Y54500D01*
G01X15557Y54589D01*
G01X15600Y54724D01*
G01X15600Y54818D01*
G01X15557Y54955D01*
G01X15466Y55046D01*
G01X15374Y55090D01*
G01X15237Y55090D01*
G01X16601Y55410D02*
G01X16601Y54455D01*
G01X16601Y55410D02*
G01X17010Y55410D01*
G01X17147Y55364D01*
G01X17193Y55318D01*
G01X17238Y55224D01*
G01X17238Y55135D01*
G01X17193Y55046D01*
G01X17147Y55001D01*
G01X17010Y54955D01*
G01X16601Y54955D02*
G01X17010Y54955D01*
G01X17147Y54907D01*
G01X17193Y54864D01*
G01X17238Y54772D01*
G01X17238Y54637D01*
G01X17193Y54546D01*
G01X17147Y54500D01*
G01X17010Y54455D01*
G01X16601Y54455D01*
G01X24269Y45199D02*
G01X24234Y45270D01*
G01X24165Y45339D01*
G01X24094Y45374D01*
G01X23957Y45374D01*
G01X23888Y45339D01*
G01X23817Y45270D01*
G01X23784Y45199D01*
G01X23749Y45097D01*
G01X23749Y44922D01*
G01X23784Y44818D01*
G01X23817Y44749D01*
G01X23888Y44681D01*
G01X23957Y44645D01*
G01X24094Y44645D01*
G01X24165Y44681D01*
G01X24234Y44749D01*
G01X24269Y44818D01*
G01X24269Y44922D01*
G01X24094Y44922D02*
G01X24269Y44922D01*
G01X24498Y45374D02*
G01X24498Y44645D01*
G01X24498Y45374D02*
G01X24980Y44645D01*
G01X24980Y45374D02*
G01X24980Y44645D01*
G01X25209Y45374D02*
G01X25209Y44645D01*
G01X25209Y45374D02*
G01X25453Y45374D01*
G01X25557Y45339D01*
G01X25626Y45270D01*
G01X25661Y45199D01*
G01X25694Y45097D01*
G01X25694Y44922D01*
G01X25661Y44818D01*
G01X25626Y44749D01*
G01X25557Y44681D01*
G01X25453Y44645D01*
G01X25209Y44645D01*
G01X24003Y42580D02*
G01X24003Y41851D01*
G01X24003Y42580D02*
G01X24244Y42580D01*
G01X24348Y42545D01*
G01X24419Y42476D01*
G01X24452Y42405D01*
G01X24488Y42303D01*
G01X24488Y42128D01*
G01X24452Y42024D01*
G01X24419Y41955D01*
G01X24348Y41887D01*
G01X24244Y41851D01*
G01X24003Y41851D01*
G01X24716Y42440D02*
G01X24785Y42476D01*
G01X24889Y42580D01*
G01X24889Y41851D01*
G01X25186Y42580D02*
G01X25567Y42580D01*
G01X25361Y42303D01*
G01X25463Y42303D01*
G01X25534Y42268D01*
G01X25567Y42232D01*
G01X25603Y42128D01*
G01X25603Y42059D01*
G01X25567Y41955D01*
G01X25499Y41887D01*
G01X25394Y41851D01*
G01X25290Y41851D01*
G01X25186Y41887D01*
G01X25153Y41922D01*
G01X25118Y41991D01*
G01X24003Y40294D02*
G01X24003Y39565D01*
G01X24003Y40294D02*
G01X24244Y40294D01*
G01X24348Y40259D01*
G01X24419Y40190D01*
G01X24452Y40119D01*
G01X24488Y40017D01*
G01X24488Y39842D01*
G01X24452Y39738D01*
G01X24419Y39669D01*
G01X24348Y39601D01*
G01X24244Y39565D01*
G01X24003Y39565D01*
G01X24716Y40154D02*
G01X24785Y40190D01*
G01X24889Y40294D01*
G01X24889Y39565D01*
G01X25153Y40119D02*
G01X25153Y40154D01*
G01X25186Y40223D01*
G01X25222Y40259D01*
G01X25290Y40294D01*
G01X25430Y40294D01*
G01X25499Y40259D01*
G01X25534Y40223D01*
G01X25567Y40154D01*
G01X25567Y40086D01*
G01X25534Y40017D01*
G01X25463Y39913D01*
G01X25118Y39565D01*
G01X25603Y39565D01*
G01X24003Y37754D02*
G01X24003Y37025D01*
G01X24003Y37754D02*
G01X24244Y37754D01*
G01X24348Y37719D01*
G01X24419Y37650D01*
G01X24452Y37579D01*
G01X24488Y37477D01*
G01X24488Y37302D01*
G01X24452Y37198D01*
G01X24419Y37129D01*
G01X24348Y37061D01*
G01X24244Y37025D01*
G01X24003Y37025D01*
G01X24716Y37614D02*
G01X24785Y37650D01*
G01X24889Y37754D01*
G01X24889Y37025D01*
G01X25463Y37754D02*
G01X25118Y37269D01*
G01X25638Y37269D01*
G01X25463Y37754D02*
G01X25463Y37025D01*
G01X24003Y35214D02*
G01X24003Y34485D01*
G01X24003Y35214D02*
G01X24244Y35214D01*
G01X24348Y35179D01*
G01X24419Y35110D01*
G01X24452Y35039D01*
G01X24488Y34937D01*
G01X24488Y34762D01*
G01X24452Y34658D01*
G01X24419Y34589D01*
G01X24348Y34521D01*
G01X24244Y34485D01*
G01X24003Y34485D01*
G01X24752Y35039D02*
G01X24752Y35074D01*
G01X24785Y35143D01*
G01X24820Y35179D01*
G01X24889Y35214D01*
G01X25029Y35214D01*
G01X25097Y35179D01*
G01X25133Y35143D01*
G01X25166Y35074D01*
G01X25166Y35006D01*
G01X25133Y34937D01*
G01X25062Y34833D01*
G01X24716Y34485D01*
G01X25201Y34485D01*
G01X25915Y35214D02*
G01X25567Y34485D01*
G01X25430Y35214D02*
G01X25915Y35214D01*
G01X24003Y32674D02*
G01X24003Y31945D01*
G01X24003Y32674D02*
G01X24244Y32674D01*
G01X24348Y32639D01*
G01X24419Y32570D01*
G01X24452Y32499D01*
G01X24488Y32397D01*
G01X24488Y32222D01*
G01X24452Y32118D01*
G01X24419Y32049D01*
G01X24348Y31981D01*
G01X24244Y31945D01*
G01X24003Y31945D01*
G01X24752Y32499D02*
G01X24752Y32534D01*
G01X24785Y32603D01*
G01X24820Y32639D01*
G01X24889Y32674D01*
G01X25029Y32674D01*
G01X25097Y32639D01*
G01X25133Y32603D01*
G01X25166Y32534D01*
G01X25166Y32466D01*
G01X25133Y32397D01*
G01X25062Y32293D01*
G01X24716Y31945D01*
G01X25201Y31945D01*
G01X25844Y32570D02*
G01X25811Y32639D01*
G01X25707Y32674D01*
G01X25638Y32674D01*
G01X25534Y32639D01*
G01X25463Y32534D01*
G01X25430Y32362D01*
G01X25430Y32189D01*
G01X25463Y32049D01*
G01X25534Y31981D01*
G01X25638Y31945D01*
G01X25671Y31945D01*
G01X25775Y31981D01*
G01X25844Y32049D01*
G01X25880Y32153D01*
G01X25880Y32189D01*
G01X25844Y32293D01*
G01X25775Y32362D01*
G01X25671Y32397D01*
G01X25638Y32397D01*
G01X25534Y32362D01*
G01X25463Y32293D01*
G01X25430Y32189D01*
G01X24003Y30134D02*
G01X24003Y29405D01*
G01X24003Y30134D02*
G01X24244Y30134D01*
G01X24348Y30099D01*
G01X24419Y30030D01*
G01X24452Y29959D01*
G01X24488Y29857D01*
G01X24488Y29682D01*
G01X24452Y29578D01*
G01X24419Y29509D01*
G01X24348Y29441D01*
G01X24244Y29405D01*
G01X24003Y29405D01*
G01X24752Y29959D02*
G01X24752Y29994D01*
G01X24785Y30063D01*
G01X24820Y30099D01*
G01X24889Y30134D01*
G01X25029Y30134D01*
G01X25097Y30099D01*
G01X25133Y30063D01*
G01X25166Y29994D01*
G01X25166Y29926D01*
G01X25133Y29857D01*
G01X25062Y29753D01*
G01X24716Y29405D01*
G01X25201Y29405D01*
G01X25844Y30134D02*
G01X25499Y30134D01*
G01X25463Y29822D01*
G01X25499Y29857D01*
G01X25603Y29890D01*
G01X25707Y29890D01*
G01X25811Y29857D01*
G01X25880Y29786D01*
G01X25915Y29682D01*
G01X25915Y29613D01*
G01X25880Y29509D01*
G01X25811Y29441D01*
G01X25707Y29405D01*
G01X25603Y29405D01*
G01X25499Y29441D01*
G01X25463Y29476D01*
G01X25430Y29545D01*
G01X24003Y27594D02*
G01X24003Y26865D01*
G01X24003Y27594D02*
G01X24244Y27594D01*
G01X24348Y27559D01*
G01X24419Y27490D01*
G01X24452Y27419D01*
G01X24488Y27317D01*
G01X24488Y27142D01*
G01X24452Y27038D01*
G01X24419Y26969D01*
G01X24348Y26901D01*
G01X24244Y26865D01*
G01X24003Y26865D01*
G01X24785Y27594D02*
G01X25166Y27594D01*
G01X24958Y27317D01*
G01X25062Y27317D01*
G01X25133Y27282D01*
G01X25166Y27246D01*
G01X25201Y27142D01*
G01X25201Y27073D01*
G01X25166Y26969D01*
G01X25097Y26901D01*
G01X24993Y26865D01*
G01X24889Y26865D01*
G01X24785Y26901D01*
G01X24752Y26936D01*
G01X24716Y27005D01*
G01X25499Y27594D02*
G01X25880Y27594D01*
G01X25671Y27317D01*
G01X25775Y27317D01*
G01X25844Y27282D01*
G01X25880Y27246D01*
G01X25915Y27142D01*
G01X25915Y27073D01*
G01X25880Y26969D01*
G01X25811Y26901D01*
G01X25707Y26865D01*
G01X25603Y26865D01*
G01X25499Y26901D01*
G01X25463Y26936D01*
G01X25430Y27005D01*
G01X24003Y25054D02*
G01X24003Y24325D01*
G01X24003Y25054D02*
G01X24244Y25054D01*
G01X24348Y25019D01*
G01X24419Y24950D01*
G01X24452Y24879D01*
G01X24488Y24777D01*
G01X24488Y24602D01*
G01X24452Y24498D01*
G01X24419Y24429D01*
G01X24348Y24361D01*
G01X24244Y24325D01*
G01X24003Y24325D01*
G01X24785Y25054D02*
G01X25166Y25054D01*
G01X24958Y24777D01*
G01X25062Y24777D01*
G01X25133Y24742D01*
G01X25166Y24706D01*
G01X25201Y24602D01*
G01X25201Y24533D01*
G01X25166Y24429D01*
G01X25097Y24361D01*
G01X24993Y24325D01*
G01X24889Y24325D01*
G01X24785Y24361D01*
G01X24752Y24396D01*
G01X24716Y24465D01*
G01X25463Y24879D02*
G01X25463Y24914D01*
G01X25499Y24983D01*
G01X25534Y25019D01*
G01X25603Y25054D01*
G01X25742Y25054D01*
G01X25811Y25019D01*
G01X25844Y24983D01*
G01X25880Y24914D01*
G01X25880Y24846D01*
G01X25844Y24777D01*
G01X25775Y24673D01*
G01X25430Y24325D01*
G01X25915Y24325D01*
G01X24003Y22514D02*
G01X24003Y21785D01*
G01X24003Y22514D02*
G01X24244Y22514D01*
G01X24348Y22479D01*
G01X24419Y22410D01*
G01X24452Y22339D01*
G01X24488Y22237D01*
G01X24488Y22062D01*
G01X24452Y21958D01*
G01X24419Y21889D01*
G01X24348Y21821D01*
G01X24244Y21785D01*
G01X24003Y21785D01*
G01X24785Y22514D02*
G01X25166Y22514D01*
G01X24958Y22237D01*
G01X25062Y22237D01*
G01X25133Y22202D01*
G01X25166Y22166D01*
G01X25201Y22062D01*
G01X25201Y21993D01*
G01X25166Y21889D01*
G01X25097Y21821D01*
G01X24993Y21785D01*
G01X24889Y21785D01*
G01X24785Y21821D01*
G01X24752Y21856D01*
G01X24716Y21925D01*
G01X25844Y22514D02*
G01X25499Y22514D01*
G01X25463Y22202D01*
G01X25499Y22237D01*
G01X25603Y22270D01*
G01X25707Y22270D01*
G01X25811Y22237D01*
G01X25880Y22166D01*
G01X25915Y22062D01*
G01X25915Y21993D01*
G01X25880Y21889D01*
G01X25811Y21821D01*
G01X25707Y21785D01*
G01X25603Y21785D01*
G01X25499Y21821D01*
G01X25463Y21856D01*
G01X25430Y21925D01*
G01X24003Y19720D02*
G01X24003Y18991D01*
G01X24003Y19720D02*
G01X24244Y19720D01*
G01X24348Y19685D01*
G01X24419Y19616D01*
G01X24452Y19545D01*
G01X24488Y19443D01*
G01X24488Y19268D01*
G01X24452Y19164D01*
G01X24419Y19095D01*
G01X24348Y19027D01*
G01X24244Y18991D01*
G01X24003Y18991D01*
G01X24785Y19720D02*
G01X25166Y19720D01*
G01X24958Y19443D01*
G01X25062Y19443D01*
G01X25133Y19408D01*
G01X25166Y19372D01*
G01X25201Y19268D01*
G01X25201Y19199D01*
G01X25166Y19095D01*
G01X25097Y19027D01*
G01X24993Y18991D01*
G01X24889Y18991D01*
G01X24785Y19027D01*
G01X24752Y19062D01*
G01X24716Y19131D01*
G01X25775Y19720D02*
G01X25430Y19235D01*
G01X25948Y19235D01*
G01X25775Y19720D02*
G01X25775Y18991D01*
G01X24003Y17434D02*
G01X24279Y16705D01*
G01X24556Y17434D02*
G01X24279Y16705D01*
G01X24785Y17434D02*
G01X24785Y16705D01*
G01X24785Y17434D02*
G01X25270Y16705D01*
G01X25270Y17434D02*
G01X25270Y16705D01*
G01X24003Y14894D02*
G01X24003Y14165D01*
G01X24231Y14894D02*
G01X24508Y14165D01*
G01X24785Y14894D02*
G01X24508Y14165D01*
G01X25013Y14894D02*
G01X25013Y14165D01*
G01X25013Y14894D02*
G01X25326Y14894D01*
G01X25430Y14859D01*
G01X25463Y14823D01*
G01X25499Y14754D01*
G01X25499Y14650D01*
G01X25463Y14582D01*
G01X25430Y14546D01*
G01X25326Y14513D01*
G01X25013Y14513D01*
G01X3429Y19974D02*
G01X3429Y19245D01*
G01X3429Y19974D02*
G01X3741Y19974D01*
G01X3845Y19939D01*
G01X3878Y19903D01*
G01X3914Y19834D01*
G01X3914Y19766D01*
G01X3878Y19697D01*
G01X3845Y19662D01*
G01X3741Y19626D01*
G01X3429Y19626D01*
G01X3670Y19626D02*
G01X3914Y19245D01*
G01X4142Y19974D02*
G01X4627Y19245D01*
G01X4627Y19974D02*
G01X4142Y19245D01*
G01X5064Y19974D02*
G01X4960Y19939D01*
G01X4889Y19834D01*
G01X4856Y19662D01*
G01X4856Y19558D01*
G01X4889Y19385D01*
G01X4960Y19281D01*
G01X5064Y19245D01*
G01X5133Y19245D01*
G01X5237Y19281D01*
G01X5306Y19385D01*
G01X5341Y19558D01*
G01X5341Y19662D01*
G01X5306Y19834D01*
G01X5237Y19939D01*
G01X5133Y19974D01*
G01X5064Y19974D01*
G01X3497Y47914D02*
G01X3878Y47914D01*
G01X3670Y47637D01*
G01X3774Y47637D01*
G01X3845Y47602D01*
G01X3878Y47566D01*
G01X3914Y47462D01*
G01X3914Y47393D01*
G01X3878Y47289D01*
G01X3810Y47221D01*
G01X3705Y47185D01*
G01X3601Y47185D01*
G01X3497Y47221D01*
G01X3464Y47256D01*
G01X3429Y47325D01*
G01X4142Y47670D02*
G01X4351Y47185D01*
G01X4559Y47670D02*
G01X4351Y47185D01*
G01X4856Y47914D02*
G01X5237Y47914D01*
G01X5029Y47637D01*
G01X5133Y47637D01*
G01X5201Y47602D01*
G01X5237Y47566D01*
G01X5270Y47462D01*
G01X5270Y47393D01*
G01X5237Y47289D01*
G01X5168Y47221D01*
G01X5064Y47185D01*
G01X4960Y47185D01*
G01X4856Y47221D01*
G01X4820Y47256D01*
G01X4787Y47325D01*
G01X3949Y45199D02*
G01X3914Y45270D01*
G01X3845Y45339D01*
G01X3774Y45374D01*
G01X3637Y45374D01*
G01X3568Y45339D01*
G01X3497Y45270D01*
G01X3464Y45199D01*
G01X3429Y45097D01*
G01X3429Y44922D01*
G01X3464Y44818D01*
G01X3497Y44749D01*
G01X3568Y44681D01*
G01X3637Y44645D01*
G01X3774Y44645D01*
G01X3845Y44681D01*
G01X3914Y44749D01*
G01X3949Y44818D01*
G01X3949Y44922D01*
G01X3774Y44922D02*
G01X3949Y44922D01*
G01X4178Y45374D02*
G01X4178Y44645D01*
G01X4178Y45374D02*
G01X4660Y44645D01*
G01X4660Y45374D02*
G01X4660Y44645D01*
G01X4889Y45374D02*
G01X4889Y44645D01*
G01X4889Y45374D02*
G01X5133Y45374D01*
G01X5237Y45339D01*
G01X5306Y45270D01*
G01X5341Y45199D01*
G01X5374Y45097D01*
G01X5374Y44922D01*
G01X5341Y44818D01*
G01X5306Y44749D01*
G01X5237Y44681D01*
G01X5133Y44645D01*
G01X4889Y44645D01*
G01X3429Y42834D02*
G01X3429Y42105D01*
G01X3429Y42834D02*
G01X3670Y42834D01*
G01X3774Y42799D01*
G01X3845Y42730D01*
G01X3878Y42659D01*
G01X3914Y42557D01*
G01X3914Y42382D01*
G01X3878Y42278D01*
G01X3845Y42209D01*
G01X3774Y42141D01*
G01X3670Y42105D01*
G01X3429Y42105D01*
G01X4142Y42694D02*
G01X4211Y42730D01*
G01X4315Y42834D01*
G01X4315Y42105D01*
G01X4960Y42834D02*
G01X4612Y42834D01*
G01X4579Y42522D01*
G01X4612Y42557D01*
G01X4716Y42590D01*
G01X4820Y42590D01*
G01X4925Y42557D01*
G01X4993Y42486D01*
G01X5029Y42382D01*
G01X5029Y42313D01*
G01X4993Y42209D01*
G01X4925Y42141D01*
G01X4820Y42105D01*
G01X4716Y42105D01*
G01X4612Y42141D01*
G01X4579Y42176D01*
G01X4544Y42245D01*
G01X3429Y40294D02*
G01X3429Y39565D01*
G01X3429Y40294D02*
G01X3670Y40294D01*
G01X3774Y40259D01*
G01X3845Y40190D01*
G01X3878Y40119D01*
G01X3914Y40017D01*
G01X3914Y39842D01*
G01X3878Y39738D01*
G01X3845Y39669D01*
G01X3774Y39601D01*
G01X3670Y39565D01*
G01X3429Y39565D01*
G01X4178Y40119D02*
G01X4178Y40154D01*
G01X4211Y40223D01*
G01X4246Y40259D01*
G01X4315Y40294D01*
G01X4455Y40294D01*
G01X4523Y40259D01*
G01X4559Y40223D01*
G01X4592Y40154D01*
G01X4592Y40086D01*
G01X4559Y40017D01*
G01X4488Y39913D01*
G01X4142Y39565D01*
G01X4627Y39565D01*
G01X3429Y37754D02*
G01X3429Y37025D01*
G01X3429Y37754D02*
G01X3670Y37754D01*
G01X3774Y37719D01*
G01X3845Y37650D01*
G01X3878Y37579D01*
G01X3914Y37477D01*
G01X3914Y37302D01*
G01X3878Y37198D01*
G01X3845Y37129D01*
G01X3774Y37061D01*
G01X3670Y37025D01*
G01X3429Y37025D01*
G01X4488Y37754D02*
G01X4142Y37269D01*
G01X4660Y37269D01*
G01X4488Y37754D02*
G01X4488Y37025D01*
G01X3429Y35214D02*
G01X3429Y34485D01*
G01X3429Y35214D02*
G01X3741Y35214D01*
G01X3845Y35179D01*
G01X3878Y35143D01*
G01X3914Y35074D01*
G01X3914Y35006D01*
G01X3878Y34937D01*
G01X3845Y34902D01*
G01X3741Y34866D01*
G01X3429Y34866D01*
G01X3670Y34866D02*
G01X3914Y34485D01*
G01X4142Y35214D02*
G01X4627Y34485D01*
G01X4627Y35214D02*
G01X4142Y34485D01*
G01X4889Y35039D02*
G01X4889Y35074D01*
G01X4925Y35143D01*
G01X4960Y35179D01*
G01X5029Y35214D01*
G01X5168Y35214D01*
G01X5237Y35179D01*
G01X5270Y35143D01*
G01X5306Y35074D01*
G01X5306Y35006D01*
G01X5270Y34937D01*
G01X5201Y34833D01*
G01X4856Y34485D01*
G01X5341Y34485D01*
G01X3670Y32674D02*
G01X3670Y31945D01*
G01X3429Y32674D02*
G01X3914Y32674D01*
G01X4142Y32674D02*
G01X4627Y31945D01*
G01X4627Y32674D02*
G01X4142Y31945D01*
G01X4889Y32499D02*
G01X4889Y32534D01*
G01X4925Y32603D01*
G01X4960Y32639D01*
G01X5029Y32674D01*
G01X5168Y32674D01*
G01X5237Y32639D01*
G01X5270Y32603D01*
G01X5306Y32534D01*
G01X5306Y32466D01*
G01X5270Y32397D01*
G01X5201Y32293D01*
G01X4856Y31945D01*
G01X5341Y31945D01*
G01X3429Y30134D02*
G01X3429Y29405D01*
G01X3429Y30134D02*
G01X3670Y30134D01*
G01X3774Y30099D01*
G01X3845Y30030D01*
G01X3878Y29959D01*
G01X3914Y29857D01*
G01X3914Y29682D01*
G01X3878Y29578D01*
G01X3845Y29509D01*
G01X3774Y29441D01*
G01X3670Y29405D01*
G01X3429Y29405D01*
G01X4559Y30134D02*
G01X4211Y30134D01*
G01X4178Y29822D01*
G01X4211Y29857D01*
G01X4315Y29890D01*
G01X4419Y29890D01*
G01X4523Y29857D01*
G01X4592Y29786D01*
G01X4627Y29682D01*
G01X4627Y29613D01*
G01X4592Y29509D01*
G01X4523Y29441D01*
G01X4419Y29405D01*
G01X4315Y29405D01*
G01X4211Y29441D01*
G01X4178Y29476D01*
G01X4142Y29545D01*
G01X5875Y30030D02*
G01X5803Y30099D01*
G01X5702Y30134D01*
G01X5562Y30134D01*
G01X5458Y30099D01*
G01X5389Y30030D01*
G01X5389Y29959D01*
G01X5422Y29890D01*
G01X5458Y29857D01*
G01X5527Y29822D01*
G01X5735Y29753D01*
G01X5803Y29718D01*
G01X5839Y29682D01*
G01X5875Y29613D01*
G01X5875Y29509D01*
G01X5803Y29441D01*
G01X5702Y29405D01*
G01X5562Y29405D01*
G01X5458Y29441D01*
G01X5389Y29509D01*
G01X6588Y30030D02*
G01X6517Y30099D01*
G01X6413Y30134D01*
G01X6276Y30134D01*
G01X6172Y30099D01*
G01X6103Y30030D01*
G01X6103Y29959D01*
G01X6136Y29890D01*
G01X6172Y29857D01*
G01X6240Y29822D01*
G01X6449Y29753D01*
G01X6517Y29718D01*
G01X6553Y29682D01*
G01X6588Y29613D01*
G01X6588Y29509D01*
G01X6517Y29441D01*
G01X6413Y29405D01*
G01X6276Y29405D01*
G01X6172Y29441D01*
G01X6103Y29509D01*
G01X3429Y27594D02*
G01X3429Y26865D01*
G01X3429Y27594D02*
G01X3670Y27594D01*
G01X3774Y27559D01*
G01X3845Y27490D01*
G01X3878Y27419D01*
G01X3914Y27317D01*
G01X3914Y27142D01*
G01X3878Y27038D01*
G01X3845Y26969D01*
G01X3774Y26901D01*
G01X3670Y26865D01*
G01X3429Y26865D01*
G01X4142Y27454D02*
G01X4211Y27490D01*
G01X4315Y27594D01*
G01X4315Y26865D01*
G01X4716Y27594D02*
G01X4612Y27559D01*
G01X4579Y27490D01*
G01X4579Y27419D01*
G01X4612Y27350D01*
G01X4683Y27317D01*
G01X4820Y27282D01*
G01X4925Y27246D01*
G01X4993Y27178D01*
G01X5029Y27109D01*
G01X5029Y27005D01*
G01X4993Y26936D01*
G01X4960Y26901D01*
G01X4856Y26865D01*
G01X4716Y26865D01*
G01X4612Y26901D01*
G01X4579Y26936D01*
G01X4544Y27005D01*
G01X4544Y27109D01*
G01X4579Y27178D01*
G01X4648Y27246D01*
G01X4752Y27282D01*
G01X4889Y27317D01*
G01X4960Y27350D01*
G01X4993Y27419D01*
G01X4993Y27490D01*
G01X4960Y27559D01*
G01X4856Y27594D01*
G01X4716Y27594D01*
G01X6276Y27490D02*
G01X6207Y27559D01*
G01X6103Y27594D01*
G01X5963Y27594D01*
G01X5859Y27559D01*
G01X5791Y27490D01*
G01X5791Y27419D01*
G01X5826Y27350D01*
G01X5859Y27317D01*
G01X5930Y27282D01*
G01X6136Y27213D01*
G01X6207Y27178D01*
G01X6240Y27142D01*
G01X6276Y27073D01*
G01X6276Y26969D01*
G01X6207Y26901D01*
G01X6103Y26865D01*
G01X5963Y26865D01*
G01X5859Y26901D01*
G01X5791Y26969D01*
G01X7023Y27419D02*
G01X6990Y27490D01*
G01X6921Y27559D01*
G01X6850Y27594D01*
G01X6713Y27594D01*
G01X6642Y27559D01*
G01X6573Y27490D01*
G01X6540Y27419D01*
G01X6504Y27317D01*
G01X6504Y27142D01*
G01X6540Y27038D01*
G01X6573Y26969D01*
G01X6642Y26901D01*
G01X6713Y26865D01*
G01X6850Y26865D01*
G01X6921Y26901D01*
G01X6990Y26969D01*
G01X7023Y27038D01*
G01X3429Y25054D02*
G01X3429Y24325D01*
G01X3429Y25054D02*
G01X3670Y25054D01*
G01X3774Y25019D01*
G01X3845Y24950D01*
G01X3878Y24879D01*
G01X3914Y24777D01*
G01X3914Y24602D01*
G01X3878Y24498D01*
G01X3845Y24429D01*
G01X3774Y24361D01*
G01X3670Y24325D01*
G01X3429Y24325D01*
G01X4142Y24914D02*
G01X4211Y24950D01*
G01X4315Y25054D01*
G01X4315Y24325D01*
G01X4993Y24810D02*
G01X4960Y24706D01*
G01X4889Y24638D01*
G01X4787Y24602D01*
G01X4752Y24602D01*
G01X4648Y24638D01*
G01X4579Y24706D01*
G01X4544Y24810D01*
G01X4544Y24846D01*
G01X4579Y24950D01*
G01X4648Y25019D01*
G01X4752Y25054D01*
G01X4787Y25054D01*
G01X4889Y25019D01*
G01X4960Y24950D01*
G01X4993Y24810D01*
G01X4993Y24638D01*
G01X4960Y24465D01*
G01X4889Y24361D01*
G01X4787Y24325D01*
G01X4716Y24325D01*
G01X4612Y24361D01*
G01X4579Y24429D01*
G01X5755Y25054D02*
G01X5755Y24325D01*
G01X5755Y25054D02*
G01X6032Y24325D01*
G01X6311Y25054D02*
G01X6032Y24325D01*
G01X6311Y25054D02*
G01X6311Y24325D01*
G01X6540Y25054D02*
G01X6540Y24325D01*
G01X3429Y22514D02*
G01X3429Y21785D01*
G01X3429Y22514D02*
G01X3670Y22514D01*
G01X3774Y22479D01*
G01X3845Y22410D01*
G01X3878Y22339D01*
G01X3914Y22237D01*
G01X3914Y22062D01*
G01X3878Y21958D01*
G01X3845Y21889D01*
G01X3774Y21821D01*
G01X3670Y21785D01*
G01X3429Y21785D01*
G01X4178Y22339D02*
G01X4178Y22374D01*
G01X4211Y22443D01*
G01X4246Y22479D01*
G01X4315Y22514D01*
G01X4455Y22514D01*
G01X4523Y22479D01*
G01X4559Y22443D01*
G01X4592Y22374D01*
G01X4592Y22306D01*
G01X4559Y22237D01*
G01X4488Y22133D01*
G01X4142Y21785D01*
G01X4627Y21785D01*
G01X4856Y22374D02*
G01X4925Y22410D01*
G01X5029Y22514D01*
G01X5029Y21785D01*
G01X3670Y17434D02*
G01X3670Y16705D01*
G01X3429Y17434D02*
G01X3914Y17434D01*
G01X4142Y17434D02*
G01X4627Y16705D01*
G01X4627Y17434D02*
G01X4142Y16705D01*
G01X5064Y17434D02*
G01X4960Y17399D01*
G01X4889Y17294D01*
G01X4856Y17122D01*
G01X4856Y17018D01*
G01X4889Y16845D01*
G01X4960Y16741D01*
G01X5064Y16705D01*
G01X5133Y16705D01*
G01X5237Y16741D01*
G01X5306Y16845D01*
G01X5341Y17018D01*
G01X5341Y17122D01*
G01X5306Y17294D01*
G01X5237Y17399D01*
G01X5133Y17434D01*
G01X5064Y17434D01*
G01X3429Y14894D02*
G01X3429Y14165D01*
G01X3429Y14894D02*
G01X3670Y14894D01*
G01X3774Y14859D01*
G01X3845Y14790D01*
G01X3878Y14719D01*
G01X3914Y14617D01*
G01X3914Y14442D01*
G01X3878Y14338D01*
G01X3845Y14269D01*
G01X3774Y14201D01*
G01X3670Y14165D01*
G01X3429Y14165D01*
G01X4178Y14719D02*
G01X4178Y14754D01*
G01X4211Y14823D01*
G01X4246Y14859D01*
G01X4315Y14894D01*
G01X4455Y14894D01*
G01X4523Y14859D01*
G01X4559Y14823D01*
G01X4592Y14754D01*
G01X4592Y14686D01*
G01X4559Y14617D01*
G01X4488Y14513D01*
G01X4142Y14165D01*
G01X4627Y14165D01*
G01X4889Y14719D02*
G01X4889Y14754D01*
G01X4925Y14823D01*
G01X4960Y14859D01*
G01X5029Y14894D01*
G01X5168Y14894D01*
G01X5237Y14859D01*
G01X5270Y14823D01*
G01X5306Y14754D01*
G01X5306Y14686D01*
G01X5270Y14617D01*
G01X5201Y14513D01*
G01X4856Y14165D01*
G01X5341Y14165D01*
G01X3429Y12608D02*
G01X3429Y11879D01*
G01X3429Y12608D02*
G01X3670Y12608D01*
G01X3774Y12573D01*
G01X3845Y12504D01*
G01X3878Y12433D01*
G01X3914Y12331D01*
G01X3914Y12156D01*
G01X3878Y12052D01*
G01X3845Y11983D01*
G01X3774Y11915D01*
G01X3670Y11879D01*
G01X3429Y11879D01*
G01X4178Y12433D02*
G01X4178Y12468D01*
G01X4211Y12537D01*
G01X4246Y12573D01*
G01X4315Y12608D01*
G01X4455Y12608D01*
G01X4523Y12573D01*
G01X4559Y12537D01*
G01X4592Y12468D01*
G01X4592Y12400D01*
G01X4559Y12331D01*
G01X4488Y12227D01*
G01X4142Y11879D01*
G01X4627Y11879D01*
G01X4925Y12608D02*
G01X5306Y12608D01*
G01X5097Y12331D01*
G01X5201Y12331D01*
G01X5270Y12296D01*
G01X5306Y12260D01*
G01X5341Y12156D01*
G01X5341Y12087D01*
G01X5306Y11983D01*
G01X5237Y11915D01*
G01X5133Y11879D01*
G01X5029Y11879D01*
G01X4925Y11915D01*
G01X4889Y11950D01*
G01X4856Y12019D01*
G01X6103Y12608D02*
G01X6103Y11879D01*
G01X6103Y12608D02*
G01X6380Y11879D01*
G01X6657Y12608D02*
G01X6380Y11879D01*
G01X6657Y12608D02*
G01X6657Y11879D01*
G01X7094Y12608D02*
G01X7023Y12573D01*
G01X6954Y12504D01*
G01X6921Y12433D01*
G01X6885Y12331D01*
G01X6885Y12156D01*
G01X6921Y12052D01*
G01X6954Y11983D01*
G01X7023Y11915D01*
G01X7094Y11879D01*
G01X7231Y11879D01*
G01X7302Y11915D01*
G01X7371Y11983D01*
G01X7404Y12052D01*
G01X7439Y12156D01*
G01X7439Y12331D01*
G01X7404Y12433D01*
G01X7371Y12504D01*
G01X7302Y12573D01*
G01X7231Y12608D01*
G01X7094Y12608D01*
G01X23749Y12354D02*
G01X23749Y11625D01*
G01X23749Y12354D02*
G01X24198Y12354D01*
G01X23749Y12006D02*
G01X24025Y12006D01*
G01X23749Y11625D02*
G01X24198Y11625D01*
G01X24427Y12354D02*
G01X24427Y11625D01*
G01X24427Y12354D02*
G01X24912Y11625D01*
G01X24912Y12354D02*
G01X24912Y11625D01*
G54D34*
G01X3012Y5598D02*
G01X2908Y5702D01*
G01X2753Y5753D01*
G01X2545Y5753D01*
G01X2390Y5702D01*
G01X2286Y5598D01*
G01X2286Y5494D01*
G01X2336Y5389D01*
G01X2390Y5339D01*
G01X2494Y5285D01*
G01X2806Y5181D01*
G01X2908Y5130D01*
G01X2961Y5080D01*
G01X3012Y4975D01*
G01X3012Y4818D01*
G01X2908Y4714D01*
G01X2753Y4663D01*
G01X2545Y4663D01*
G01X2390Y4714D01*
G01X2286Y4818D01*
G01X3355Y5753D02*
G01X3355Y4663D01*
G01X3355Y5753D02*
G01X4031Y5753D01*
G01X3355Y5234D02*
G01X3771Y5234D01*
G01X3355Y4663D02*
G01X4031Y4663D01*
G01X4373Y5753D02*
G01X4373Y4663D01*
G01X4373Y5753D02*
G01X5102Y4663D01*
G01X5102Y5753D02*
G01X5102Y4663D01*
G01X6172Y5598D02*
G01X6068Y5702D01*
G01X5913Y5753D01*
G01X5704Y5753D01*
G01X5549Y5702D01*
G01X5445Y5598D01*
G01X5445Y5494D01*
G01X5496Y5389D01*
G01X5549Y5339D01*
G01X5651Y5285D01*
G01X5963Y5181D01*
G01X6068Y5130D01*
G01X6121Y5080D01*
G01X6172Y4975D01*
G01X6172Y4818D01*
G01X6068Y4714D01*
G01X5913Y4663D01*
G01X5704Y4663D01*
G01X5549Y4714D01*
G01X5445Y4818D01*
G01X6827Y5753D02*
G01X6723Y5702D01*
G01X6619Y5598D01*
G01X6565Y5494D01*
G01X6515Y5339D01*
G01X6515Y5080D01*
G01X6565Y4922D01*
G01X6619Y4818D01*
G01X6723Y4714D01*
G01X6827Y4663D01*
G01X7035Y4663D01*
G01X7137Y4714D01*
G01X7241Y4818D01*
G01X7294Y4922D01*
G01X7345Y5080D01*
G01X7345Y5339D01*
G01X7294Y5494D01*
G01X7241Y5598D01*
G01X7137Y5702D01*
G01X7035Y5753D01*
G01X6827Y5753D01*
G01X7688Y5753D02*
G01X7688Y4663D01*
G01X7688Y5753D02*
G01X8155Y5753D01*
G01X8313Y5702D01*
G01X8364Y5651D01*
G01X8417Y5547D01*
G01X8417Y5443D01*
G01X8364Y5339D01*
G01X8313Y5285D01*
G01X8155Y5234D01*
G01X7688Y5234D01*
G01X8051Y5234D02*
G01X8417Y4663D01*
G01X20066Y5715D02*
G01X20066Y4625D01*
G01X20792Y5715D02*
G01X20066Y4988D01*
G01X20325Y5247D02*
G01X20792Y4625D01*
G01X21135Y5715D02*
G01X21135Y4625D01*
G01X21135Y5715D02*
G01X21810Y5715D01*
G01X21135Y5196D02*
G01X21551Y5196D01*
G01X21135Y4625D02*
G01X21810Y4625D01*
G01X22153Y5715D02*
G01X22570Y5196D01*
G01X22570Y4625D01*
G01X22987Y5715D02*
G01X22570Y5196D01*
G01X23329Y5715D02*
G01X23329Y4625D01*
G01X23329Y5715D02*
G01X23797Y5715D01*
G01X23952Y5664D01*
G01X24003Y5613D01*
G01X24056Y5509D01*
G01X24056Y5351D01*
G01X24003Y5247D01*
G01X23952Y5196D01*
G01X23797Y5143D01*
G01X23329Y5143D01*
G01X24815Y5715D02*
G01X24399Y4625D01*
G01X24815Y5715D02*
G01X25229Y4625D01*
G01X24554Y4988D02*
G01X25074Y4988D01*
G01X25572Y5715D02*
G01X25572Y4625D01*
G01X25572Y5715D02*
G01X25935Y5715D01*
G01X26093Y5664D01*
G01X26197Y5560D01*
G01X26248Y5455D01*
G01X26301Y5300D01*
G01X26301Y5041D01*
G01X26248Y4884D01*
G01X26197Y4780D01*
G01X26093Y4676D01*
G01X25935Y4625D01*
G01X25572Y4625D01*
G54D35*
G01X13589Y49403D02*
G01X13589Y48313D01*
G01X13589Y49403D02*
G01X14056Y49403D01*
G01X14211Y49352D01*
G01X14264Y49301D01*
G01X14315Y49197D01*
G01X14315Y49093D01*
G01X14264Y48988D01*
G01X14211Y48935D01*
G01X14056Y48884D01*
G01X13589Y48884D02*
G01X14056Y48884D01*
G01X14211Y48831D01*
G01X14264Y48780D01*
G01X14315Y48676D01*
G01X14315Y48521D01*
G01X14264Y48417D01*
G01X14211Y48364D01*
G01X14056Y48313D01*
G01X13589Y48313D01*
G01X14658Y49403D02*
G01X14658Y48625D01*
G01X14711Y48468D01*
G01X14815Y48364D01*
G01X14970Y48313D01*
G01X15074Y48313D01*
G01X15229Y48364D01*
G01X15333Y48468D01*
G01X15387Y48625D01*
G01X15387Y49403D01*
G01X16456Y49403D02*
G01X15730Y48313D01*
G01X15730Y49403D02*
G01X16456Y49403D01*
G01X15730Y48313D02*
G01X16456Y48313D01*
G01X17526Y49403D02*
G01X16799Y48313D01*
G01X16799Y49403D02*
G01X17526Y49403D01*
G01X16799Y48313D02*
G01X17526Y48313D01*
G01X17868Y49403D02*
G01X17868Y48313D01*
G01X17868Y49403D02*
G01X18544Y49403D01*
G01X17868Y48884D02*
G01X18285Y48884D01*
G01X17868Y48313D02*
G01X18544Y48313D01*
G01X18887Y49403D02*
G01X18887Y48313D01*
G01X18887Y49403D02*
G01X19354Y49403D01*
G01X19512Y49352D01*
G01X19563Y49301D01*
G01X19616Y49197D01*
G01X19616Y49093D01*
G01X19563Y48988D01*
G01X19512Y48935D01*
G01X19354Y48884D01*
G01X18887Y48884D01*
G01X19253Y48884D02*
G01X19616Y48313D01*
G01X38387Y17495D02*
G01X39476Y17495D01*
G01X38387Y17495D02*
G01X38387Y17962D01*
G01X38437Y18117D01*
G01X38488Y18168D01*
G01X38592Y18221D01*
G01X38696Y18221D01*
G01X38801Y18168D01*
G01X38854Y18117D01*
G01X38905Y17962D01*
G01X38905Y17495D01*
G01X38905Y17858D02*
G01X39476Y18221D01*
G01X38387Y18564D02*
G01X39476Y18564D01*
G01X38387Y18564D02*
G01X38387Y19240D01*
G01X38905Y18564D02*
G01X38905Y18981D01*
G01X39476Y18564D02*
G01X39476Y19240D01*
G01X38387Y19583D02*
G01X39476Y19583D01*
G01X39476Y19583D02*
G01X39476Y20205D01*
G01X38387Y20965D02*
G01X39476Y20548D01*
G01X38387Y20965D02*
G01X39476Y21381D01*
G01X39113Y20706D02*
G01X39113Y21224D01*
G01X38387Y21724D02*
G01X38905Y22138D01*
G01X39476Y22138D01*
G01X38387Y22555D02*
G01X38905Y22138D01*
G01X37211Y8092D02*
G01X37294Y8133D01*
G01X37416Y8255D01*
G01X37416Y7396D01*
G01X37685Y8255D02*
G01X37685Y7396D01*
G01X37685Y8255D02*
G01X38260Y7396D01*
G01X38260Y8255D02*
G01X38260Y7396D01*
G01X38938Y8255D02*
G01X38529Y7683D01*
G01X39143Y7683D01*
G01X38938Y8255D02*
G01X38938Y7396D01*
G01X39659Y8255D02*
G01X39535Y8214D01*
G01X39453Y8092D01*
G01X39413Y7886D01*
G01X39413Y7764D01*
G01X39453Y7559D01*
G01X39535Y7437D01*
G01X39659Y7396D01*
G01X39740Y7396D01*
G01X39862Y7437D01*
G01X39944Y7559D01*
G01X39984Y7764D01*
G01X39984Y7886D01*
G01X39944Y8092D01*
G01X39862Y8214D01*
G01X39740Y8255D01*
G01X39659Y8255D01*
G01X40500Y8255D02*
G01X40378Y8214D01*
G01X40297Y8092D01*
G01X40256Y7886D01*
G01X40256Y7764D01*
G01X40297Y7559D01*
G01X40378Y7437D01*
G01X40500Y7396D01*
G01X40584Y7396D01*
G01X40706Y7437D01*
G01X40787Y7559D01*
G01X40827Y7764D01*
G01X40827Y7886D01*
G01X40787Y8092D01*
G01X40706Y8214D01*
G01X40584Y8255D01*
G01X40500Y8255D01*
G01X41671Y8255D02*
G01X41262Y7396D01*
G01X41099Y8255D02*
G01X41671Y8255D01*
G01X35570Y34528D02*
G01X35570Y33439D01*
G01X35570Y34528D02*
G01X36037Y34528D01*
G01X36194Y34477D01*
G01X36248Y34427D01*
G01X36301Y34323D01*
G01X36301Y34218D01*
G01X36248Y34114D01*
G01X36194Y34061D01*
G01X36037Y34010D01*
G01X35570Y34010D01*
G01X35940Y34010D02*
G01X36301Y33439D01*
G01X36639Y34323D02*
G01X36746Y34373D01*
G01X36903Y34528D01*
G01X36903Y33439D01*
G01X49443Y30652D02*
G01X50533Y30652D01*
G01X49443Y30652D02*
G01X49443Y31120D01*
G01X49494Y31275D01*
G01X49545Y31325D01*
G01X49649Y31379D01*
G01X49753Y31379D01*
G01X49857Y31325D01*
G01X49911Y31275D01*
G01X49961Y31120D01*
G01X49961Y30652D02*
G01X49961Y31120D01*
G01X50015Y31275D01*
G01X50065Y31325D01*
G01X50170Y31379D01*
G01X50325Y31379D01*
G01X50429Y31325D01*
G01X50482Y31275D01*
G01X50533Y31120D01*
G01X50533Y30652D01*
G01X49702Y32501D02*
G01X49598Y32448D01*
G01X49494Y32344D01*
G01X49443Y32240D01*
G01X49443Y32034D01*
G01X49494Y31930D01*
G01X49598Y31826D01*
G01X49702Y31772D01*
G01X49857Y31722D01*
G01X50116Y31722D01*
G01X50274Y31772D01*
G01X50378Y31826D01*
G01X50482Y31930D01*
G01X50533Y32034D01*
G01X50533Y32240D01*
G01X50482Y32344D01*
G01X50378Y32448D01*
G01X50274Y32501D01*
G01X49443Y33467D02*
G01X49443Y32948D01*
G01X49911Y32895D01*
G01X49857Y32948D01*
G01X49806Y33103D01*
G01X49806Y33258D01*
G01X49857Y33416D01*
G01X49961Y33520D01*
G01X50116Y33571D01*
G01X50220Y33571D01*
G01X50378Y33520D01*
G01X50482Y33416D01*
G01X50533Y33258D01*
G01X50533Y33103D01*
G01X50482Y32948D01*
G01X50429Y32895D01*
G01X50325Y32844D01*
G01X49443Y34434D02*
G01X50170Y33914D01*
G01X50170Y34693D01*
G01X49443Y34434D02*
G01X50533Y34434D01*
G01X49443Y35763D02*
G01X50533Y35245D01*
G01X49443Y35036D02*
G01X49443Y35763D01*
G54D34*
G01X31369Y37846D02*
G01X32458Y37846D01*
G01X31369Y37846D02*
G01X31369Y38209D01*
G01X31419Y38366D01*
G01X31523Y38468D01*
G01X31628Y38521D01*
G01X31783Y38572D01*
G01X32042Y38572D01*
G01X32199Y38521D01*
G01X32303Y38468D01*
G01X32407Y38366D01*
G01X32458Y38209D01*
G01X32458Y37846D01*
G01X31369Y38915D02*
G01X32458Y38915D01*
G01X31523Y39987D02*
G01X31419Y39883D01*
G01X31369Y39725D01*
G01X31369Y39519D01*
G01X31419Y39362D01*
G01X31523Y39258D01*
G01X31628Y39258D01*
G01X31732Y39311D01*
G01X31783Y39362D01*
G01X31836Y39466D01*
G01X31940Y39778D01*
G01X31991Y39883D01*
G01X32042Y39933D01*
G01X32146Y39987D01*
G01X32303Y39987D01*
G01X32407Y39883D01*
G01X32458Y39725D01*
G01X32458Y39519D01*
G01X32407Y39362D01*
G01X32303Y39258D01*
G01X31369Y40330D02*
G01X32458Y40330D01*
G01X31369Y40330D02*
G01X31369Y40797D01*
G01X31419Y40952D01*
G01X31470Y41005D01*
G01X31574Y41056D01*
G01X31732Y41056D01*
G01X31836Y41005D01*
G01X31887Y40952D01*
G01X31940Y40797D01*
G01X31940Y40330D01*
G01X31369Y41399D02*
G01X32458Y41399D01*
G01X32458Y41399D02*
G01X32458Y42024D01*
G01X31369Y42781D02*
G01X32458Y42367D01*
G01X31369Y42781D02*
G01X32458Y43197D01*
G01X32095Y42522D02*
G01X32095Y43040D01*
G01X31369Y43540D02*
G01X31887Y43954D01*
G01X32458Y43954D01*
G01X31369Y44371D02*
G01X31887Y43954D01*
G54D35*
G01X36448Y47292D02*
G01X36553Y47343D01*
G01X36708Y47498D01*
G01X36708Y46408D01*
G01X37104Y47238D02*
G01X37104Y47292D01*
G01X37155Y47396D01*
G01X37208Y47447D01*
G01X37312Y47498D01*
G01X37518Y47498D01*
G01X37622Y47447D01*
G01X37675Y47396D01*
G01X37726Y47292D01*
G01X37726Y47188D01*
G01X37675Y47083D01*
G01X37571Y46926D01*
G01X37050Y46408D01*
G01X37779Y46408D01*
G01X38122Y47498D02*
G01X38536Y46408D01*
G01X38953Y47498D02*
G01X38536Y46408D01*
G01X39296Y47292D02*
G01X39400Y47343D01*
G01X39555Y47498D01*
G01X39555Y46408D01*
G01X40314Y47498D02*
G01X39898Y46408D01*
G01X40314Y47498D02*
G01X40728Y46408D01*
G01X40055Y46771D02*
G01X40573Y46771D01*
G54D34*
G01X43017Y43687D02*
G01X42499Y42598D01*
G01X42291Y43687D02*
G01X43017Y43687D01*
G01X43621Y43687D02*
G01X43464Y43637D01*
G01X43413Y43533D01*
G01X43413Y43428D01*
G01X43464Y43324D01*
G01X43568Y43273D01*
G01X43776Y43220D01*
G01X43931Y43169D01*
G01X44035Y43065D01*
G01X44089Y42961D01*
G01X44089Y42806D01*
G01X44035Y42702D01*
G01X43985Y42649D01*
G01X43827Y42598D01*
G01X43621Y42598D01*
G01X43464Y42649D01*
G01X43413Y42702D01*
G01X43360Y42806D01*
G01X43360Y42961D01*
G01X43413Y43065D01*
G01X43517Y43169D01*
G01X43672Y43220D01*
G01X43881Y43273D01*
G01X43985Y43324D01*
G01X44035Y43428D01*
G01X44035Y43533D01*
G01X43985Y43637D01*
G01X43827Y43687D01*
G01X43621Y43687D01*
G01X44742Y43687D02*
G01X44587Y43637D01*
G01X44483Y43482D01*
G01X44432Y43220D01*
G01X44432Y43065D01*
G01X44483Y42806D01*
G01X44587Y42649D01*
G01X44742Y42598D01*
G01X44846Y42598D01*
G01X45003Y42649D01*
G01X45107Y42806D01*
G01X45158Y43065D01*
G01X45158Y43220D01*
G01X45107Y43482D01*
G01X45003Y43637D01*
G01X44846Y43687D01*
G01X44742Y43687D01*
G01X46126Y43687D02*
G01X45605Y43687D01*
G01X45554Y43220D01*
G01X45605Y43273D01*
G01X45760Y43324D01*
G01X45918Y43324D01*
G01X46073Y43273D01*
G01X46177Y43169D01*
G01X46228Y43014D01*
G01X46228Y42910D01*
G01X46177Y42753D01*
G01X46073Y42649D01*
G01X45918Y42598D01*
G01X45760Y42598D01*
G01X45605Y42649D01*
G01X45554Y42702D01*
G01X45501Y42806D01*
G54D10*
G75*
G01X48578Y30630D02*
G03X42570Y30630I-3004J849D01*
G01*
G54D33*
G75*
G01X41427Y36906D02*
G03X41430Y36906I2J-200D01*
G01*
G54D10*
G75*
G01X22733Y41529D02*
G03X22733Y41529I-5893J0D01*
G01*
M00*
M02*
